<svg
   fill="currentColor"
   version="1.1"
   id="svg69"
   xml:space="preserve"
   width="249.44867"
   height="112.4908"
   viewBox="0 0 249.44867 112.4908"
   sodipodi:docname="dvd-logo.svg"
   inkscape:version="1.1.2 (0a00cf5339, 2022-02-04, custom)"
   xmlns:inkscape="http://www.inkscape.org/namespaces/inkscape"
   xmlns:sodipodi="http://sodipodi.sourceforge.net/DTD/sodipodi-0.dtd"
   xmlns="http://www.w3.org/2000/svg"
   xmlns:svg="http://www.w3.org/2000/svg"><defs
     id="defs73" /><sodipodi:namedview
     id="namedview71"
     pagecolor="#ffffff"
     bordercolor="#666666"
     borderopacity="1.0"
     inkscape:pageshadow="2"
     inkscape:pageopacity="0.0"
     inkscape:pagecheckerboard="0"
     showgrid="false"
     inkscape:zoom="3.220361"
     inkscape:cx="110.23609"
     inkscape:cy="61.949576"
     inkscape:window-width="1910"
     inkscape:window-height="1033"
     inkscape:window-x="1925"
     inkscape:window-y="42"
     inkscape:window-maximized="1"
     inkscape:current-layer="g75"
     fit-margin-top="0"
     fit-margin-left="0"
     fit-margin-right="0"
     fit-margin-bottom="0" /><g
     id="g75"
     inkscape:groupmode="layer"
     inkscape:label="ink_ext_XXXXXX"
     transform="matrix(1.3333333,0,0,-1.3333333,-4.1260399,185.50533)"><g
       id="g77"
       transform="scale(0.1)">
         <path
   d="m 1319.07,1289.7 h 181.98 c 0,0 220.1,11.28 214.45,-101.58 -8.73,-174.73 -276.52,-162.25 -276.52,-162.25 l 52.18,227.16 h -181.98 l -76.2,-328.721 h 180.59 c 0,0 180.4,-8.024 328.75,63.488 157.99,76.173 159.41,210.203 159.41,210.203 0,0 5.64,84.65 -77.59,134.03 -92.88,55.1 -214.45,59.26 -214.45,59.26 H 1211.82 L 976.211,1085.13 877.449,1391.29 H 191.793 L 166.398,1289.7 h 181.989 c 0,0 220.101,11.28 214.453,-101.58 -8.735,-174.73 -276.524,-162.25 -276.524,-162.25 l 52.211,227.16 H 156.516 L 80.3281,924.309 H 260.934 c 0,0 180.375,-8.024 328.718,63.488 C 747.672,1063.97 749.07,1198 749.07,1198 c 0,0 -2.101,38.52 -7.047,55.03 -4.234,14.11 -9.886,36.67 -9.886,36.67 h 8.48 L 908.496,818.496 1319.07,1289.7"
   style="fill-opacity:1;fill-rule:evenodd;stroke:none"
   id="path81" /><path
   d="m 30.9453,691.52 c 0,70.117 395.4177,126.976 883.2027,126.976 487.782,0 883.182,-56.859 883.182,-126.976 0,-70.133 -395.4,-126.977 -883.182,-126.977 -487.785,0 -883.2027,56.844 -883.2027,126.977"
   style="fill-opacity:1;fill-rule:evenodd;stroke:none"
   id="path83" /><path
   d="m 1707.84,593.531 h -36.34 v -6.129 h 14.38 v -39.793 h 7.57 v 39.793 h 14.39 z m 59.86,0 h -11.59 l -13.48,-34.89 -13.72,34.89 h -11.69 v -45.922 h 7.57 v 38.348 h 0.23 l 15.03,-38.348 h 4.8 l 15.05,38.348 h 0.23 v -38.348 h 7.57 v 45.922"
   style="fill-opacity:1;fill-rule:evenodd;stroke:none"
   id="path85" />
         </g></g></svg>
